# Blender v2.80 (sub 35) OBJ File: 'Würfel.blend'
# www.blender.org
mtllib Würfel.mtl
o Cube_Cube.001
v -1.000000 -1.000000 1.000000
v -1.000000 1.000000 1.000000
v -1.000000 -1.000000 -1.000000
v -1.000000 1.000000 -1.000000
v 1.000000 -1.000000 1.000000
v 1.000000 1.000000 1.000000
v 1.000000 -1.000000 -1.000000
v 1.000000 1.000000 -1.000000
v -0.600000 1.000000 0.600000
v -0.600000 1.000000 -0.600000
v 0.600000 1.000000 -0.600000
v 0.600000 1.000000 0.600000
v -0.600000 -0.600000 1.000000
v -0.600000 0.600000 1.000000
v 0.600000 0.600000 1.000000
v 0.600000 -0.600000 1.000000
v 1.000000 0.600000 -0.600000
v 1.000000 -0.600000 -0.600000
v 1.000000 -0.600000 0.600000
v 1.000000 0.600000 0.600000
v -0.600000 0.600000 -1.000000
v -0.600000 -0.600000 -1.000000
v 0.600000 -0.600000 -1.000000
v 0.600000 0.600000 -1.000000
v -1.000000 -0.600000 -0.600000
v -1.000000 -0.600000 0.600000
v -1.000000 0.600000 0.600000
v -1.000000 0.600000 -0.600000
v -0.600000 -1.000000 -0.600000
v -0.600000 -1.000000 0.600000
v 0.600000 -1.000000 -0.600000
v 0.600000 -1.000000 0.600000
v -0.446974 0.744956 0.446974
v -0.446974 0.744956 -0.446974
v 0.446974 0.744956 -0.446974
v 0.446974 0.744956 0.446974
v -0.446974 -0.446974 0.744956
v -0.446974 0.446974 0.744956
v 0.446974 0.446974 0.744956
v 0.446974 -0.446974 0.744956
v 0.744956 0.446974 -0.446974
v 0.744956 -0.446974 -0.446974
v 0.744956 -0.446974 0.446974
v 0.744956 0.446974 0.446974
v -0.446974 0.446974 -0.744956
v -0.446974 -0.446974 -0.744956
v 0.446974 -0.446974 -0.744956
v 0.446974 0.446974 -0.744956
v -0.744956 -0.446974 -0.446974
v -0.744956 -0.446974 0.446974
v -0.744956 0.446974 0.446974
v -0.744956 0.446974 -0.446974
v -0.446974 -0.744956 -0.446974
v -0.446974 -0.744956 0.446974
v 0.446974 -0.744956 -0.446974
v 0.446974 -0.744956 0.446974
v -0.268184 1.744956 0.268184
v -0.268184 1.744956 -0.268184
v 0.268184 1.744956 -0.268184
v 0.268184 1.744956 0.268184
v -1.744956 -0.268184 -0.268184
v -1.744956 -0.268184 0.268184
v -1.744956 0.268184 0.268184
v -1.744956 0.268184 -0.268184
v -0.268184 0.268184 -1.744956
v -0.268184 -0.268184 -1.744956
v 0.268184 -0.268184 -1.744956
v 0.268184 0.268184 -1.744956
v 1.744956 0.268184 -0.268184
v 1.744956 -0.268184 -0.268184
v 1.744956 -0.268184 0.268184
v 1.744956 0.268184 0.268184
v -0.268184 -0.268184 1.744956
v -0.268184 0.268184 1.744956
v 0.268184 0.268184 1.744956
v 0.268184 -0.268184 1.744956
v -0.268184 -1.744956 -0.268184
v -0.268184 -1.744956 0.268184
v 0.268184 -1.744956 -0.268184
v 0.268184 -1.744956 0.268184
vt 0.522392 0.263158
vt 0.574579 0.473684
vt 0.522392 0.526316
vt 0.261196 0.263158
vt 0.052239 0.315790
vt 0.000000 0.263158
vt 0.208957 0.210526
vt 0.522392 0.000000
vt 0.313435 0.052632
vt 0.261196 0.000000
vt 0.522392 0.263158
vt 0.731349 0.210526
vt 0.783588 0.263158
vt 0.261196 0.526316
vt 0.470153 0.473684
vt 0.522392 0.526316
vt 0.884710 0.684211
vt 0.851402 0.546451
vt 0.884710 0.526316
vt 0.261196 0.263158
vt 0.313435 0.473684
vt 0.470153 0.315789
vt 0.522392 0.263158
vt 0.313435 0.315789
vt 0.900336 0.000000
vt 0.933644 0.137760
vt 0.900336 0.157895
vt 0.313435 0.210526
vt 0.261196 0.263158
vt 0.522392 0.263158
vt 0.470153 0.052632
vt 0.470153 0.210526
vt 0.918018 0.684211
vt 0.884710 0.546451
vt 0.918018 0.526316
vt 0.261196 0.000000
vt 0.052239 0.052632
vt 0.000000 0.000000
vt 0.208957 0.052632
vt 0.052239 0.210526
vt 0.966952 0.000000
vt 0.999335 0.137760
vt 0.966952 0.157895
vt 0.261196 0.526316
vt 0.208957 0.315789
vt 0.052239 0.473684
vt 0.000000 0.526316
vt 0.208957 0.473684
vt 0.950467 0.842105
vt 0.983776 0.978828
vt 0.950467 0.999842
vt 0.783328 0.526316
vt 0.731140 0.315789
vt 0.783328 0.263158
vt 0.574579 0.315789
vt 0.731140 0.473684
vt 0.950467 1.000000
vt 0.917159 0.862240
vt 0.950467 0.842105
vt 0.731349 0.052632
vt 0.783588 0.000000
vt 0.522392 0.000000
vt 0.574631 0.210526
vt 0.574631 0.052632
vt 0.000000 0.658814
vt 0.093398 0.526316
vt 0.116748 0.658814
vt 0.783588 0.131579
vt 0.876986 0.000000
vt 0.900336 0.131579
vt 0.466991 0.789474
vt 0.560389 0.657895
vt 0.583739 0.789474
vt 0.817234 0.657895
vt 0.723836 0.789474
vt 0.700487 0.657895
vt 0.116748 0.921053
vt 0.210146 0.789474
vt 0.233496 0.921053
vt 0.000000 0.790393
vt 0.093398 0.658814
vt 0.116748 0.790393
vt 0.850543 0.684211
vt 0.883851 0.821970
vt 0.850543 0.842105
vt 0.850543 0.842105
vt 0.883851 0.979865
vt 0.850543 1.000000
vt 0.984635 0.684211
vt 0.951327 0.546451
vt 0.984635 0.526316
vt 0.966692 0.263158
vt 1.000000 0.401679
vt 0.966692 0.420895
vt 0.066616 0.790393
vt 0.099925 0.928153
vt 0.066616 0.948288
vt 0.817234 0.526316
vt 0.851402 0.664075
vt 0.817234 0.684211
vt 0.033308 0.948288
vt 0.000000 0.810528
vt 0.033308 0.790393
vt 0.917159 1.000000
vt 0.883851 0.862240
vt 0.917159 0.842105
vt 0.917159 0.684211
vt 0.950467 0.821970
vt 0.917159 0.842105
vt 0.033308 0.810528
vt 0.066616 0.790393
vt 0.883851 0.684211
vt 0.917159 0.821970
vt 0.883851 0.842105
vt 0.900075 0.263158
vt 0.933384 0.400918
vt 0.900075 0.421053
vt 0.983776 0.842105
vt 0.950467 0.704346
vt 0.983776 0.684211
vt 0.918018 0.526316
vt 0.951326 0.664075
vt 0.918018 0.684211
vt 0.966692 0.421053
vt 0.933384 0.283293
vt 0.933644 0.000000
vt 0.966952 0.137760
vt 0.933644 0.157895
vt 0.850543 1.000000
vt 0.817234 0.862240
vt 0.850543 0.842105
vt 0.817234 0.684211
vt 0.850543 0.821970
vt 0.817234 0.842105
vt 0.186796 0.991627
vt 0.256845 0.921053
vt 0.256845 0.991627
vt 0.350243 0.657895
vt 0.443642 0.526316
vt 0.466991 0.657895
vt 0.233496 0.789474
vt 0.326894 0.657895
vt 0.350243 0.789474
vt 0.116748 0.789474
vt 0.210146 0.657895
vt 0.233496 0.789474
vt 0.256845 0.991627
vt 0.326824 0.921053
vt 0.326824 0.991627
vt 0.783328 0.394737
vt 0.876726 0.263158
vt 0.900075 0.394737
vt 0.350243 0.789474
vt 0.443642 0.657895
vt 0.466991 0.789474
vt 0.466991 0.657895
vt 0.560389 0.526316
vt 0.583739 0.657895
vt 0.970385 0.228470
vt 0.900336 0.157895
vt 0.970385 0.157895
vt 0.466991 0.921053
vt 0.559253 0.789474
vt 0.583622 0.921053
vt 0.350243 0.526316
vt 0.256845 0.657895
vt 0.233496 0.526316
vt 0.783328 0.526316
vt 0.876726 0.394737
vt 0.900075 0.526316
vt 0.770535 0.990446
vt 0.700487 0.919871
vt 0.770535 0.919871
vt 0.233496 0.921053
vt 0.326894 0.789474
vt 0.350243 0.921053
vt 0.350243 0.921053
vt 0.443642 0.789474
vt 0.466991 0.921053
vt 0.583739 0.789474
vt 0.677137 0.657895
vt 0.700487 0.789474
vt 0.900075 0.421053
vt 0.970124 0.491627
vt 0.900075 0.491627
vt 0.116748 0.657895
vt 0.210146 0.526316
vt 0.233496 0.657895
vt 0.900336 0.131579
vt 0.806938 0.263158
vt 0.783588 0.131579
vt 0.583622 0.921053
vt 0.677970 0.789474
vt 0.700254 0.921053
vt 0.186796 0.921053
vt 0.116748 0.991627
vt 0.116748 0.921053
vt 0.700487 0.919871
vt 0.793885 0.789474
vt 0.817234 0.919871
vt 0.700487 0.526316
vt 0.607088 0.657895
vt 0.583739 0.526316
vt 0.700487 0.657895
vt 0.793885 0.526316
vt 0.817234 0.657895
vt 0.851402 0.664075
vt 0.933644 0.020135
vt 0.884710 0.664075
vt 0.999335 0.020135
vt 0.983776 0.861321
vt 0.917159 0.979865
vt 0.023350 0.526316
vt 0.806938 0.000000
vt 0.490341 0.657895
vt 0.793885 0.789474
vt 0.140097 0.789474
vt 0.023350 0.658814
vt 0.883851 0.704346
vt 0.883851 0.862240
vt 0.951327 0.664075
vt 1.000000 0.284172
vt 0.099925 0.810528
vt 0.851402 0.546451
vt 0.000000 0.928153
vt 0.883851 0.979865
vt 0.950467 0.704346
vt 0.033308 0.928153
vt 0.917159 0.704346
vt 0.933384 0.283293
vt 0.950467 0.821970
vt 0.951326 0.546451
vt 0.933384 0.400918
vt 0.966952 0.020135
vt 0.817234 0.979865
vt 0.850543 0.704346
vt 0.186796 0.921053
vt 0.373593 0.526316
vt 0.256845 0.657895
vt 0.140097 0.657895
vt 0.256845 0.921053
vt 0.806677 0.263158
vt 0.373593 0.657895
vt 0.490341 0.526316
vt 0.900336 0.228470
vt 0.489275 0.789474
vt 0.326894 0.657895
vt 0.806677 0.394737
vt 0.700487 0.990446
vt 0.256845 0.789474
vt 0.373593 0.789474
vt 0.607088 0.657895
vt 0.970124 0.421053
vt 0.140097 0.526316
vt 0.876986 0.263158
vt 0.607991 0.789474
vt 0.186796 0.991627
vt 0.723836 0.789474
vt 0.677137 0.657895
vt 0.723836 0.526316
vn -1.0000 0.0000 0.0000
vn 0.0000 0.0000 -1.0000
vn 1.0000 0.0000 0.0000
vn 0.0000 0.0000 1.0000
vn 0.0000 -1.0000 0.0000
vn 0.0000 1.0000 0.0000
vn 0.8575 0.5145 0.0000
vn 0.0000 -0.5145 -0.8575
vn -0.5145 0.0000 0.8575
vn -0.8575 -0.5145 0.0000
vn -0.8575 0.0000 -0.5145
vn -0.5145 -0.8575 0.0000
vn -0.9844 0.1760 0.0000
vn 0.0000 0.9844 0.1760
vn 0.1760 0.0000 0.9844
vn 0.0000 0.9844 -0.1760
vn -0.1760 0.9844 0.0000
vn 0.9844 -0.1760 0.0000
vn 0.8575 0.0000 0.5145
vn 0.0000 0.5145 0.8575
vn 0.5145 0.0000 0.8575
vn -0.8575 0.0000 0.5145
vn 0.8575 0.0000 -0.5145
vn -0.8575 0.5145 0.0000
vn 0.5145 0.8575 0.0000
vn -0.5145 0.8575 0.0000
vn 0.0000 0.8575 0.5145
vn 0.0000 0.8575 -0.5145
vn 0.8575 -0.5145 0.0000
vn 0.0000 0.5145 -0.8575
vn 0.5145 -0.8575 0.0000
vn -0.5145 0.0000 -0.8575
vn 0.0000 -0.8575 0.5145
vn 0.0000 -0.8575 -0.5145
vn 0.0000 -0.5145 0.8575
vn 0.5145 0.0000 -0.8575
vn 0.0000 0.1760 0.9844
vn 0.0000 0.1760 -0.9844
vn 0.9844 0.1760 0.0000
vn -0.1760 -0.9844 0.0000
vn -0.1760 0.0000 -0.9844
vn -0.1760 0.0000 0.9844
vn -0.9844 0.0000 -0.1760
vn 0.9844 0.0000 -0.1760
vn 0.0000 -0.9844 -0.1760
vn 0.1760 -0.9844 0.0000
vn 0.1760 0.9844 0.0000
vn 0.1760 0.0000 -0.9844
vn 0.9844 0.0000 0.1760
vn 0.0000 -0.9844 0.1760
vn -0.9844 0.0000 0.1760
vn -0.9844 -0.1760 0.0000
vn 0.0000 -0.1760 0.9844
vn 0.0000 -0.1760 -0.9844
usemtl None
s off
f 4/1/1 27/2/1 2/3/1
f 7/4/2 24/5/2 8/6/2
f 8/6/3 18/7/3 7/4/3
f 2/8/4 15/9/4 6/10/4
f 7/11/5 29/12/5 3/13/5
f 2/14/6 10/15/6 4/16/6
f 9/17/7 34/18/7 10/19/7
f 6/20/6 9/21/6 2/14/6
f 4/16/6 11/22/6 8/23/6
f 8/23/6 12/24/6 6/20/6
f 30/25/8 56/26/8 32/27/8
f 6/10/4 16/28/4 5/29/4
f 1/30/4 14/31/4 2/8/4
f 5/29/4 13/32/4 1/30/4
f 25/33/9 52/34/9 28/35/9
f 5/36/3 20/37/3 6/38/3
f 7/4/3 19/39/3 5/36/3
f 6/38/3 17/40/3 8/6/3
f 32/41/10 55/42/10 31/43/10
f 3/44/2 23/45/2 7/4/2
f 8/6/2 21/46/2 4/47/2
f 4/47/2 22/48/2 3/44/2
f 23/49/11 48/50/11 24/51/11
f 1/52/1 25/53/1 3/54/1
f 3/54/1 28/55/1 4/1/1
f 2/3/1 26/56/1 1/52/1
f 28/57/12 51/58/12 27/59/12
f 3/13/5 30/60/5 1/61/5
f 5/62/5 31/63/5 7/11/5
f 1/61/5 32/64/5 5/62/5
f 33/65/13 58/66/13 34/67/13
f 38/68/14 75/69/14 39/70/14
f 43/71/15 72/72/15 44/73/15
f 48/74/16 65/75/16 45/76/16
f 52/77/17 63/78/17 51/79/17
f 56/80/18 79/81/18 55/82/18
f 13/83/19 38/84/19 14/85/19
f 10/86/20 35/87/20 11/88/20
f 17/89/21 42/90/21 18/91/21
f 15/92/22 40/93/22 16/94/22
f 21/95/23 46/96/23 22/97/23
f 11/98/24 36/99/24 12/100/24
f 18/101/25 43/102/25 19/103/25
f 26/104/26 49/105/26 25/106/26
f 16/107/27 37/108/27 13/109/27
f 22/97/28 47/110/28 23/111/28
f 29/112/29 54/113/29 30/114/29
f 12/115/30 33/116/30 9/117/30
f 20/118/31 41/119/31 17/120/31
f 27/121/32 50/122/32 26/123/32
f 14/124/33 39/125/33 15/92/33
f 24/126/34 45/127/34 21/128/34
f 31/129/35 53/130/35 29/131/35
f 19/132/36 44/133/36 20/134/36
f 58/135/6 60/136/6 59/137/6
f 36/138/37 57/139/37 33/140/37
f 34/141/38 59/142/38 35/143/38
f 35/144/39 60/145/39 36/146/39
f 63/147/1 61/148/1 62/149/1
f 50/150/40 61/151/40 49/152/40
f 49/153/41 64/154/41 52/155/41
f 51/156/42 62/157/42 50/158/42
f 65/159/2 67/160/2 66/161/2
f 45/162/43 66/163/43 46/164/43
f 47/165/44 68/166/44 48/167/44
f 46/168/45 67/169/45 47/170/45
f 69/171/3 71/172/3 70/173/3
f 42/174/46 71/175/46 43/176/46
f 44/177/47 69/178/47 41/179/47
f 41/180/48 70/181/48 42/182/48
f 75/183/4 73/184/4 76/185/4
f 39/186/49 76/187/49 40/188/49
f 40/189/50 73/190/50 37/191/50
f 37/192/51 74/193/51 38/194/51
f 79/195/5 78/196/5 77/197/5
f 53/198/52 78/199/52 54/200/52
f 54/201/53 80/202/53 56/203/53
f 55/204/54 77/205/54 53/206/54
f 4/1/1 28/55/1 27/2/1
f 7/4/2 23/45/2 24/5/2
f 8/6/3 17/40/3 18/7/3
f 2/8/4 14/31/4 15/9/4
f 7/11/5 31/63/5 29/12/5
f 2/14/6 9/21/6 10/15/6
f 9/17/7 33/207/7 34/18/7
f 6/20/6 12/24/6 9/21/6
f 4/16/6 10/15/6 11/22/6
f 8/23/6 11/22/6 12/24/6
f 30/25/8 54/208/8 56/26/8
f 6/10/4 15/9/4 16/28/4
f 1/30/4 13/32/4 14/31/4
f 5/29/4 16/28/4 13/32/4
f 25/33/9 49/209/9 52/34/9
f 5/36/3 19/39/3 20/37/3
f 7/4/3 18/7/3 19/39/3
f 6/38/3 20/37/3 17/40/3
f 32/41/10 56/210/10 55/42/10
f 3/44/2 22/48/2 23/45/2
f 8/6/2 24/5/2 21/46/2
f 4/47/2 21/46/2 22/48/2
f 23/49/11 47/211/11 48/50/11
f 1/52/1 26/56/1 25/53/1
f 3/54/1 25/53/1 28/55/1
f 2/3/1 27/2/1 26/56/1
f 28/57/12 52/212/12 51/58/12
f 3/13/5 29/12/5 30/60/5
f 5/62/5 32/64/5 31/63/5
f 1/61/5 30/60/5 32/64/5
f 33/65/13 57/213/13 58/66/13
f 38/68/14 74/214/14 75/69/14
f 43/71/15 71/215/15 72/72/15
f 48/74/16 68/216/16 65/75/16
f 52/77/17 64/217/17 63/78/17
f 56/80/18 80/218/18 79/81/18
f 13/83/19 37/219/19 38/84/19
f 10/86/20 34/220/20 35/87/20
f 17/89/21 41/221/21 42/90/21
f 15/92/22 39/222/22 40/93/22
f 21/95/23 45/223/23 46/96/23
f 11/98/24 35/224/24 36/99/24
f 18/101/25 42/225/25 43/102/25
f 26/104/26 50/226/26 49/105/26
f 16/107/27 40/227/27 37/108/27
f 22/97/28 46/228/28 47/110/28
f 29/112/29 53/229/29 54/113/29
f 12/115/30 36/230/30 33/116/30
f 20/118/31 44/231/31 41/119/31
f 27/121/32 51/232/32 50/122/32
f 14/124/33 38/233/33 39/125/33
f 24/126/34 48/234/34 45/127/34
f 31/129/35 55/235/35 53/130/35
f 19/132/36 43/236/36 44/133/36
f 58/135/6 57/237/6 60/136/6
f 36/138/37 60/238/37 57/139/37
f 34/141/38 58/239/38 59/142/38
f 35/144/39 59/240/39 60/145/39
f 63/147/1 64/241/1 61/148/1
f 50/150/40 62/242/40 61/151/40
f 49/153/41 61/243/41 64/154/41
f 51/156/42 63/244/42 62/157/42
f 65/159/2 68/245/2 67/160/2
f 45/162/43 65/246/43 66/163/43
f 47/165/44 67/247/44 68/166/44
f 46/168/45 66/248/45 67/169/45
f 69/171/3 72/249/3 71/172/3
f 42/174/46 70/250/46 71/175/46
f 44/177/47 72/251/47 69/178/47
f 41/180/48 69/252/48 70/181/48
f 75/183/4 74/253/4 73/184/4
f 39/186/49 75/254/49 76/187/49
f 40/189/50 76/255/50 73/190/50
f 37/192/51 73/256/51 74/193/51
f 79/195/5 80/257/5 78/196/5
f 53/198/52 77/258/52 78/199/52
f 54/201/53 78/259/53 80/202/53
f 55/204/54 79/260/54 77/205/54
